<?xml version="1.0" encoding="UTF-8"?>
<svg xmlns="http://www.w3.org/2000/svg" width="1600" height="900" viewBox="0 0 1600 900">
  <title>Aishas Comfort AC Smile Grid — light</title>
  <rect width="1600" height="900" fill="#FFF8F1"/>
  
    <g transform="translate(-42 -30) scale(1)">
      <rect x="0" y="0" width="250" height="250" rx="62" fill="none" stroke="#17233C" stroke-width="12" opacity="0.08"/>
      <text x="125" y="145" text-anchor="middle" fill="#17233C" opacity="0.2" font-family="Manrope, Arial, sans-serif" font-size="108" font-weight="800" letter-spacing="-8">AC</text>
      <path d="M66 176c18 21 38 31 59 31s41-10 59-31" fill="none" stroke="#F45B5B" stroke-width="15" stroke-linecap="round" opacity="0.58"/>
      <circle cx="205" cy="55" r="18" fill="#FFC27A" opacity="0.78"/>
    </g>
    <g transform="translate(360 95) scale(0.78)">
      <rect x="0" y="0" width="250" height="250" rx="62" fill="none" stroke="#17233C" stroke-width="12" opacity="0.08"/>
      <text x="125" y="145" text-anchor="middle" fill="#17233C" opacity="0.2" font-family="Manrope, Arial, sans-serif" font-size="108" font-weight="800" letter-spacing="-8">AC</text>
      <path d="M66 176c18 21 38 31 59 31s41-10 59-31" fill="none" stroke="#F45B5B" stroke-width="15" stroke-linecap="round" opacity="0.58"/>
      <circle cx="205" cy="55" r="18" fill="#FFC27A" opacity="0.78"/>
    </g>
    <g transform="translate(720 -45) scale(1.05)">
      <rect x="0" y="0" width="250" height="250" rx="62" fill="none" stroke="#17233C" stroke-width="12" opacity="0.08"/>
      <text x="125" y="145" text-anchor="middle" fill="#17233C" opacity="0.2" font-family="Manrope, Arial, sans-serif" font-size="108" font-weight="800" letter-spacing="-8">AC</text>
      <path d="M66 176c18 21 38 31 59 31s41-10 59-31" fill="none" stroke="#F45B5B" stroke-width="15" stroke-linecap="round" opacity="0.58"/>
      <circle cx="205" cy="55" r="18" fill="#FFC27A" opacity="0.78"/>
    </g>
    <g transform="translate(1125 105) scale(0.82)">
      <rect x="0" y="0" width="250" height="250" rx="62" fill="none" stroke="#17233C" stroke-width="12" opacity="0.08"/>
      <text x="125" y="145" text-anchor="middle" fill="#17233C" opacity="0.2" font-family="Manrope, Arial, sans-serif" font-size="108" font-weight="800" letter-spacing="-8">AC</text>
      <path d="M66 176c18 21 38 31 59 31s41-10 59-31" fill="none" stroke="#F45B5B" stroke-width="15" stroke-linecap="round" opacity="0.58"/>
      <circle cx="205" cy="55" r="18" fill="#FFC27A" opacity="0.78"/>
    </g>
    <g transform="translate(1460 -55) scale(1)">
      <rect x="0" y="0" width="250" height="250" rx="62" fill="none" stroke="#17233C" stroke-width="12" opacity="0.08"/>
      <text x="125" y="145" text-anchor="middle" fill="#17233C" opacity="0.2" font-family="Manrope, Arial, sans-serif" font-size="108" font-weight="800" letter-spacing="-8">AC</text>
      <path d="M66 176c18 21 38 31 59 31s41-10 59-31" fill="none" stroke="#F45B5B" stroke-width="15" stroke-linecap="round" opacity="0.58"/>
      <circle cx="205" cy="55" r="18" fill="#FFC27A" opacity="0.78"/>
    </g>
    <g transform="translate(145 385) scale(0.84)">
      <rect x="0" y="0" width="250" height="250" rx="62" fill="none" stroke="#17233C" stroke-width="12" opacity="0.08"/>
      <text x="125" y="145" text-anchor="middle" fill="#17233C" opacity="0.2" font-family="Manrope, Arial, sans-serif" font-size="108" font-weight="800" letter-spacing="-8">AC</text>
      <path d="M66 176c18 21 38 31 59 31s41-10 59-31" fill="none" stroke="#F45B5B" stroke-width="15" stroke-linecap="round" opacity="0.58"/>
      <circle cx="205" cy="55" r="18" fill="#FFC27A" opacity="0.78"/>
    </g>
    <g transform="translate(555 505) scale(1.02)">
      <rect x="0" y="0" width="250" height="250" rx="62" fill="none" stroke="#17233C" stroke-width="12" opacity="0.08"/>
      <text x="125" y="145" text-anchor="middle" fill="#17233C" opacity="0.2" font-family="Manrope, Arial, sans-serif" font-size="108" font-weight="800" letter-spacing="-8">AC</text>
      <path d="M66 176c18 21 38 31 59 31s41-10 59-31" fill="none" stroke="#F45B5B" stroke-width="15" stroke-linecap="round" opacity="0.58"/>
      <circle cx="205" cy="55" r="18" fill="#FFC27A" opacity="0.78"/>
    </g>
    <g transform="translate(965 360) scale(0.78)">
      <rect x="0" y="0" width="250" height="250" rx="62" fill="none" stroke="#17233C" stroke-width="12" opacity="0.08"/>
      <text x="125" y="145" text-anchor="middle" fill="#17233C" opacity="0.2" font-family="Manrope, Arial, sans-serif" font-size="108" font-weight="800" letter-spacing="-8">AC</text>
      <path d="M66 176c18 21 38 31 59 31s41-10 59-31" fill="none" stroke="#F45B5B" stroke-width="15" stroke-linecap="round" opacity="0.58"/>
      <circle cx="205" cy="55" r="18" fill="#FFC27A" opacity="0.78"/>
    </g>
    <g transform="translate(1350 515) scale(1.04)">
      <rect x="0" y="0" width="250" height="250" rx="62" fill="none" stroke="#17233C" stroke-width="12" opacity="0.08"/>
      <text x="125" y="145" text-anchor="middle" fill="#17233C" opacity="0.2" font-family="Manrope, Arial, sans-serif" font-size="108" font-weight="800" letter-spacing="-8">AC</text>
      <path d="M66 176c18 21 38 31 59 31s41-10 59-31" fill="none" stroke="#F45B5B" stroke-width="15" stroke-linecap="round" opacity="0.58"/>
      <circle cx="205" cy="55" r="18" fill="#FFC27A" opacity="0.78"/>
    </g>
    <g transform="translate(-120 760) scale(0.82)">
      <rect x="0" y="0" width="250" height="250" rx="62" fill="none" stroke="#17233C" stroke-width="12" opacity="0.08"/>
      <text x="125" y="145" text-anchor="middle" fill="#17233C" opacity="0.2" font-family="Manrope, Arial, sans-serif" font-size="108" font-weight="800" letter-spacing="-8">AC</text>
      <path d="M66 176c18 21 38 31 59 31s41-10 59-31" fill="none" stroke="#F45B5B" stroke-width="15" stroke-linecap="round" opacity="0.58"/>
      <circle cx="205" cy="55" r="18" fill="#FFC27A" opacity="0.78"/>
    </g>
    <g transform="translate(315 740) scale(1.02)">
      <rect x="0" y="0" width="250" height="250" rx="62" fill="none" stroke="#17233C" stroke-width="12" opacity="0.08"/>
      <text x="125" y="145" text-anchor="middle" fill="#17233C" opacity="0.2" font-family="Manrope, Arial, sans-serif" font-size="108" font-weight="800" letter-spacing="-8">AC</text>
      <path d="M66 176c18 21 38 31 59 31s41-10 59-31" fill="none" stroke="#F45B5B" stroke-width="15" stroke-linecap="round" opacity="0.58"/>
      <circle cx="205" cy="55" r="18" fill="#FFC27A" opacity="0.78"/>
    </g>
    <g transform="translate(790 790) scale(0.8)">
      <rect x="0" y="0" width="250" height="250" rx="62" fill="none" stroke="#17233C" stroke-width="12" opacity="0.08"/>
      <text x="125" y="145" text-anchor="middle" fill="#17233C" opacity="0.2" font-family="Manrope, Arial, sans-serif" font-size="108" font-weight="800" letter-spacing="-8">AC</text>
      <path d="M66 176c18 21 38 31 59 31s41-10 59-31" fill="none" stroke="#F45B5B" stroke-width="15" stroke-linecap="round" opacity="0.58"/>
      <circle cx="205" cy="55" r="18" fill="#FFC27A" opacity="0.78"/>
    </g>
    <g transform="translate(1210 735) scale(1)">
      <rect x="0" y="0" width="250" height="250" rx="62" fill="none" stroke="#17233C" stroke-width="12" opacity="0.08"/>
      <text x="125" y="145" text-anchor="middle" fill="#17233C" opacity="0.2" font-family="Manrope, Arial, sans-serif" font-size="108" font-weight="800" letter-spacing="-8">AC</text>
      <path d="M66 176c18 21 38 31 59 31s41-10 59-31" fill="none" stroke="#F45B5B" stroke-width="15" stroke-linecap="round" opacity="0.58"/>
      <circle cx="205" cy="55" r="18" fill="#FFC27A" opacity="0.78"/>
    </g>
</svg>