<?xml version="1.0" encoding="UTF-8"?>
<svg xmlns="http://www.w3.org/2000/svg" width="1800" height="540" viewBox="0 0 1800 540">
  <title>Aishas Comfort category icon sample</title>
  <rect width="1800" height="540" fill="#FFF8F1"/>
  <g transform="translate(0 0)">
      <rect x="12" y="12" width="276" height="246" rx="30" fill="#FFFFFF" stroke="#E5DDD3" stroke-width="2"/>
      <svg x="86" y="30" width="128" height="128" viewBox="0 0 128 128">
  <title>Aishas Comfort — Divan</title>
  <g fill="none" stroke="#17233C" stroke-width="4" stroke-linecap="round" stroke-linejoin="round">
    <rect x="20" y="58" width="88" height="31" rx="8"/><path d="M27 58v-8c0-8 6-14 14-14h46c8 0 14 6 14 14v8M64 58v31M31 89v8M97 89v8"/>
  </g>
  <path d="M45 109c6 7 12 10 19 10s13-3 19-10" fill="none" stroke="#F45B5B" stroke-width="5" stroke-linecap="round"/>
  <circle cx="105" cy="23" r="5" fill="#FFC27A"/>
</svg>
      <text x="150" y="205" text-anchor="middle" fill="#17233C" font-family="Manrope, Arial, sans-serif" font-size="22" font-weight="700">Divan</text>
      <text x="150" y="234" text-anchor="middle" fill="#657083" font-family="Manrope, Arial, sans-serif" font-size="15" font-weight="500">Uy mebeli</text>
    </g>
<g transform="translate(300 0)">
      <rect x="12" y="12" width="276" height="246" rx="30" fill="#FFFFFF" stroke="#E5DDD3" stroke-width="2"/>
      <svg x="86" y="30" width="128" height="128" viewBox="0 0 128 128">
  <title>Aishas Comfort — Karavot</title>
  <g fill="none" stroke="#17233C" stroke-width="4" stroke-linecap="round" stroke-linejoin="round">
    <path d="M20 44v54M108 59v39M20 62h88v27H20zM29 62V48h34c9 0 16 6 16 14M29 89v9M99 89v9"/>
  </g>
  <path d="M45 109c6 7 12 10 19 10s13-3 19-10" fill="none" stroke="#F45B5B" stroke-width="5" stroke-linecap="round"/>
  <circle cx="105" cy="23" r="5" fill="#FFC27A"/>
</svg>
      <text x="150" y="205" text-anchor="middle" fill="#17233C" font-family="Manrope, Arial, sans-serif" font-size="22" font-weight="700">Karavot</text>
      <text x="150" y="234" text-anchor="middle" fill="#657083" font-family="Manrope, Arial, sans-serif" font-size="15" font-weight="500">Yotoqxona</text>
    </g>
<g transform="translate(600 0)">
      <rect x="12" y="12" width="276" height="246" rx="30" fill="#FFFFFF" stroke="#E5DDD3" stroke-width="2"/>
      <svg x="86" y="30" width="128" height="128" viewBox="0 0 128 128">
  <title>Aishas Comfort — Ovqat stoli</title>
  <g fill="none" stroke="#17233C" stroke-width="4" stroke-linecap="round" stroke-linejoin="round">
    <rect x="20" y="48" width="88" height="17" rx="6"/><path d="M31 65v34M97 65v34M49 65l-5 34M79 65l5 34"/>
  </g>
  <path d="M45 109c6 7 12 10 19 10s13-3 19-10" fill="none" stroke="#F45B5B" stroke-width="5" stroke-linecap="round"/>
  <circle cx="105" cy="23" r="5" fill="#FFC27A"/>
</svg>
      <text x="150" y="205" text-anchor="middle" fill="#17233C" font-family="Manrope, Arial, sans-serif" font-size="22" font-weight="700">Ovqat stoli</text>
      <text x="150" y="234" text-anchor="middle" fill="#657083" font-family="Manrope, Arial, sans-serif" font-size="15" font-weight="500">Oshxona</text>
    </g>
<g transform="translate(900 0)">
      <rect x="12" y="12" width="276" height="246" rx="30" fill="#FFFFFF" stroke="#E5DDD3" stroke-width="2"/>
      <svg x="86" y="30" width="128" height="128" viewBox="0 0 128 128">
  <title>Aishas Comfort — Ofis kreslosi</title>
  <g fill="none" stroke="#17233C" stroke-width="4" stroke-linecap="round" stroke-linejoin="round">
    <rect x="43" y="25" width="42" height="44" rx="17"/><path d="M39 69h50v17H39zM64 86v11M47 101h34M51 97l-9 8M77 97l9 8"/>
  </g>
  <path d="M45 109c6 7 12 10 19 10s13-3 19-10" fill="none" stroke="#F45B5B" stroke-width="5" stroke-linecap="round"/>
  <circle cx="105" cy="23" r="5" fill="#FFC27A"/>
</svg>
      <text x="150" y="205" text-anchor="middle" fill="#17233C" font-family="Manrope, Arial, sans-serif" font-size="22" font-weight="700">Ofis kreslosi</text>
      <text x="150" y="234" text-anchor="middle" fill="#657083" font-family="Manrope, Arial, sans-serif" font-size="15" font-weight="500">Ofis</text>
    </g>
<g transform="translate(1200 0)">
      <rect x="12" y="12" width="276" height="246" rx="30" fill="#FFFFFF" stroke="#E5DDD3" stroke-width="2"/>
      <svg x="86" y="30" width="128" height="128" viewBox="0 0 128 128">
  <title>Aishas Comfort — Maktab partasi</title>
  <g fill="none" stroke="#17233C" stroke-width="4" stroke-linecap="round" stroke-linejoin="round">
    <path d="M23 48h82l-7 20H30l-7-20Z"/><path d="M37 68l-7 31M91 68l7 31M48 68v14h32V68M55 37h18"/>
  </g>
  <path d="M45 109c6 7 12 10 19 10s13-3 19-10" fill="none" stroke="#F45B5B" stroke-width="5" stroke-linecap="round"/>
  <circle cx="105" cy="23" r="5" fill="#FFC27A"/>
</svg>
      <text x="150" y="205" text-anchor="middle" fill="#17233C" font-family="Manrope, Arial, sans-serif" font-size="22" font-weight="700">Maktab partasi</text>
      <text x="150" y="234" text-anchor="middle" fill="#657083" font-family="Manrope, Arial, sans-serif" font-size="15" font-weight="500">Ta’lim</text>
    </g>
<g transform="translate(1500 0)">
      <rect x="12" y="12" width="276" height="246" rx="30" fill="#FFFFFF" stroke="#E5DDD3" stroke-width="2"/>
      <svg x="86" y="30" width="128" height="128" viewBox="0 0 128 128">
  <title>Aishas Comfort — Bolalar arg‘imchog‘i</title>
  <g fill="none" stroke="#17233C" stroke-width="4" stroke-linecap="round" stroke-linejoin="round">
    <path d="M22 98 52 27h24l30 71M42 98h44M53 42l11 18 11-18M52 60v25M76 60v25M49 85h30"/>
  </g>
  <path d="M45 109c6 7 12 10 19 10s13-3 19-10" fill="none" stroke="#F45B5B" stroke-width="5" stroke-linecap="round"/>
  <circle cx="105" cy="23" r="5" fill="#FFC27A"/>
</svg>
      <text x="150" y="205" text-anchor="middle" fill="#17233C" font-family="Manrope, Arial, sans-serif" font-size="22" font-weight="700">Bolalar arg‘imchog‘i</text>
      <text x="150" y="234" text-anchor="middle" fill="#657083" font-family="Manrope, Arial, sans-serif" font-size="15" font-weight="500">Bolalar</text>
    </g>
<g transform="translate(0 270)">
      <rect x="12" y="12" width="276" height="246" rx="30" fill="#FFFFFF" stroke="#E5DDD3" stroke-width="2"/>
      <svg x="86" y="30" width="128" height="128" viewBox="0 0 128 128">
  <title>Aishas Comfort — Oshxona buyumlari</title>
  <g fill="none" stroke="#17233C" stroke-width="4" stroke-linecap="round" stroke-linejoin="round">
    <path d="M31 50h66v37c0 8-6 14-14 14H45c-8 0-14-6-14-14V50ZM25 50h78M43 38h42M55 30h18M97 61h10c8 0 10 16 0 20H97"/>
  </g>
  <path d="M45 109c6 7 12 10 19 10s13-3 19-10" fill="none" stroke="#F45B5B" stroke-width="5" stroke-linecap="round"/>
  <circle cx="105" cy="23" r="5" fill="#FFC27A"/>
</svg>
      <text x="150" y="205" text-anchor="middle" fill="#17233C" font-family="Manrope, Arial, sans-serif" font-size="22" font-weight="700">Oshxona buyumlari</text>
      <text x="150" y="234" text-anchor="middle" fill="#657083" font-family="Manrope, Arial, sans-serif" font-size="15" font-weight="500">Oshxona</text>
    </g>
<g transform="translate(300 270)">
      <rect x="12" y="12" width="276" height="246" rx="30" fill="#FFFFFF" stroke="#E5DDD3" stroke-width="2"/>
      <svg x="86" y="30" width="128" height="128" viewBox="0 0 128 128">
  <title>Aishas Comfort — Saqlash qutisi</title>
  <g fill="none" stroke="#17233C" stroke-width="4" stroke-linecap="round" stroke-linejoin="round">
    <path d="M26 47h76v52H26zM20 37h88v15H20zM55 61h18M34 47v52M94 47v52"/>
  </g>
  <path d="M45 109c6 7 12 10 19 10s13-3 19-10" fill="none" stroke="#F45B5B" stroke-width="5" stroke-linecap="round"/>
  <circle cx="105" cy="23" r="5" fill="#FFC27A"/>
</svg>
      <text x="150" y="205" text-anchor="middle" fill="#17233C" font-family="Manrope, Arial, sans-serif" font-size="22" font-weight="700">Saqlash qutisi</text>
      <text x="150" y="234" text-anchor="middle" fill="#657083" font-family="Manrope, Arial, sans-serif" font-size="15" font-weight="500">Uy-ro‘zg‘or</text>
    </g>
<g transform="translate(600 270)">
      <rect x="12" y="12" width="276" height="246" rx="30" fill="#FFFFFF" stroke="#E5DDD3" stroke-width="2"/>
      <svg x="86" y="30" width="128" height="128" viewBox="0 0 128 128">
  <title>Aishas Comfort — Kir savati</title>
  <g fill="none" stroke="#17233C" stroke-width="4" stroke-linecap="round" stroke-linejoin="round">
    <path d="M31 46h66l-7 54H38l-7-54Z"/><path d="M42 46V33M86 46V33M49 59v27M64 59v27M79 59v27M26 46h76"/>
  </g>
  <path d="M45 109c6 7 12 10 19 10s13-3 19-10" fill="none" stroke="#F45B5B" stroke-width="5" stroke-linecap="round"/>
  <circle cx="105" cy="23" r="5" fill="#FFC27A"/>
</svg>
      <text x="150" y="205" text-anchor="middle" fill="#17233C" font-family="Manrope, Arial, sans-serif" font-size="22" font-weight="700">Kir savati</text>
      <text x="150" y="234" text-anchor="middle" fill="#657083" font-family="Manrope, Arial, sans-serif" font-size="15" font-weight="500">Uy-ro‘zg‘or</text>
    </g>
<g transform="translate(900 270)">
      <rect x="12" y="12" width="276" height="246" rx="30" fill="#FFFFFF" stroke="#E5DDD3" stroke-width="2"/>
      <svg x="86" y="30" width="128" height="128" viewBox="0 0 128 128">
  <title>Aishas Comfort — Yetkazib berish</title>
  <g fill="none" stroke="#17233C" stroke-width="4" stroke-linecap="round" stroke-linejoin="round">
    <path d="M19 43h57v43H19zM76 58h18l15 17v11H76V58ZM83 65h10l7 9H83v-9Z"/><circle cx="39" cy="91" r="9"/><circle cx="91" cy="91" r="9"/><path d="M48 91h34"/>
  </g>
  <path d="M45 109c6 7 12 10 19 10s13-3 19-10" fill="none" stroke="#F45B5B" stroke-width="5" stroke-linecap="round"/>
  <circle cx="105" cy="23" r="5" fill="#FFC27A"/>
</svg>
      <text x="150" y="205" text-anchor="middle" fill="#17233C" font-family="Manrope, Arial, sans-serif" font-size="22" font-weight="700">Yetkazib berish</text>
      <text x="150" y="234" text-anchor="middle" fill="#657083" font-family="Manrope, Arial, sans-serif" font-size="15" font-weight="500">Xizmat</text>
    </g>
<g transform="translate(1200 270)">
      <rect x="12" y="12" width="276" height="246" rx="30" fill="#FFFFFF" stroke="#E5DDD3" stroke-width="2"/>
      <svg x="86" y="30" width="128" height="128" viewBox="0 0 128 128">
  <title>Aishas Comfort — Yig‘ish xizmati</title>
  <g fill="none" stroke="#17233C" stroke-width="4" stroke-linecap="round" stroke-linejoin="round">
    <path d="M36 31c9 0 15 7 15 15 0 3-1 6-2 8l31 31-13 13-31-31c-2 1-5 2-8 2-9 0-15-7-15-15 0-4 1-7 3-10l10 10 9-9-10-10c3-3 7-4 11-4Z"/><path d="m76 36 14-8 11 11-8 14-10 2-9-9 2-10Z"/>
  </g>
  <path d="M45 109c6 7 12 10 19 10s13-3 19-10" fill="none" stroke="#F45B5B" stroke-width="5" stroke-linecap="round"/>
  <circle cx="105" cy="23" r="5" fill="#FFC27A"/>
</svg>
      <text x="150" y="205" text-anchor="middle" fill="#17233C" font-family="Manrope, Arial, sans-serif" font-size="22" font-weight="700">Yig‘ish xizmati</text>
      <text x="150" y="234" text-anchor="middle" fill="#657083" font-family="Manrope, Arial, sans-serif" font-size="15" font-weight="500">Xizmat</text>
    </g>
<g transform="translate(1500 270)">
      <rect x="12" y="12" width="276" height="246" rx="30" fill="#FFFFFF" stroke="#E5DDD3" stroke-width="2"/>
      <svg x="86" y="30" width="128" height="128" viewBox="0 0 128 128">
  <title>Aishas Comfort — Kafolat</title>
  <g fill="none" stroke="#17233C" stroke-width="4" stroke-linecap="round" stroke-linejoin="round">
    <path d="M64 24 99 38v25c0 21-14 35-35 42-21-7-35-21-35-42V38l35-14Z"/><path d="m46 64 12 12 25-27"/>
  </g>
  <path d="M45 109c6 7 12 10 19 10s13-3 19-10" fill="none" stroke="#F45B5B" stroke-width="5" stroke-linecap="round"/>
  <circle cx="105" cy="23" r="5" fill="#FFC27A"/>
</svg>
      <text x="150" y="205" text-anchor="middle" fill="#17233C" font-family="Manrope, Arial, sans-serif" font-size="22" font-weight="700">Kafolat</text>
      <text x="150" y="234" text-anchor="middle" fill="#657083" font-family="Manrope, Arial, sans-serif" font-size="15" font-weight="500">Xizmat</text>
    </g>
</svg>