<?xml version="1.0" encoding="UTF-8"?>
<svg xmlns="http://www.w3.org/2000/svg" width="2400" height="1040" viewBox="0 0 2400 1040">
  <title>Aishas Comfort 32 icon library</title>
  <rect width="2400" height="1040" fill="#FFF8F1"/>
  <text x="56" y="62" fill="#17233C" font-family="Manrope, Arial, sans-serif" font-size="34" font-weight="800">AISHAS COMFORT — 32 IKONKA KUTUBXONASI</text>
  <text x="2344" y="62" text-anchor="end" fill="#F45B5B" font-family="Manrope, Arial, sans-serif" font-size="20" font-weight="700">CATEGORY + SERVICE SYSTEM</text>
  <g transform="translate(56 96)">
      <rect x="0" y="0" width="258" height="212" rx="26" fill="#FFFFFF" stroke="#E5DDD3" stroke-width="2"/>
      <svg x="75" y="6" width="108" height="108" viewBox="0 0 128 128">
  <title>Aishas Comfort — Divan</title>
  <g fill="none" stroke="#17233C" stroke-width="4" stroke-linecap="round" stroke-linejoin="round">
    <rect x="20" y="58" width="88" height="31" rx="8"/><path d="M27 58v-8c0-8 6-14 14-14h46c8 0 14 6 14 14v8M64 58v31M31 89v8M97 89v8"/>
  </g>
  <path d="M45 109c6 7 12 10 19 10s13-3 19-10" fill="none" stroke="#F45B5B" stroke-width="5" stroke-linecap="round"/>
  <circle cx="105" cy="23" r="5" fill="#FFC27A"/>
</svg>
      <text x="129" y="141" text-anchor="middle" fill="#17233C" font-family="Manrope, Arial, sans-serif" font-size="18" font-weight="700">Divan</text>
      <text x="129" y="170" text-anchor="middle" fill="#657083" font-family="Manrope, Arial, sans-serif" font-size="13" font-weight="500">Uy mebeli</text>
      <text x="129" y="196" text-anchor="middle" fill="#F45B5B" font-family="Manrope, Arial, sans-serif" font-size="12" font-weight="700">01</text>
    </g>
<g transform="translate(342 96)">
      <rect x="0" y="0" width="258" height="212" rx="26" fill="#FFFFFF" stroke="#E5DDD3" stroke-width="2"/>
      <svg x="75" y="6" width="108" height="108" viewBox="0 0 128 128">
  <title>Aishas Comfort — Kreslo</title>
  <g fill="none" stroke="#17233C" stroke-width="4" stroke-linecap="round" stroke-linejoin="round">
    <path d="M34 61V45c0-9 7-16 16-16h28c9 0 16 7 16 16v16"/><rect x="28" y="59" width="72" height="32" rx="9"/><path d="M38 91v7M90 91v7M28 70H18v15M100 70h10v15"/>
  </g>
  <path d="M45 109c6 7 12 10 19 10s13-3 19-10" fill="none" stroke="#F45B5B" stroke-width="5" stroke-linecap="round"/>
  <circle cx="105" cy="23" r="5" fill="#FFC27A"/>
</svg>
      <text x="129" y="141" text-anchor="middle" fill="#17233C" font-family="Manrope, Arial, sans-serif" font-size="18" font-weight="700">Kreslo</text>
      <text x="129" y="170" text-anchor="middle" fill="#657083" font-family="Manrope, Arial, sans-serif" font-size="13" font-weight="500">Uy mebeli</text>
      <text x="129" y="196" text-anchor="middle" fill="#F45B5B" font-family="Manrope, Arial, sans-serif" font-size="12" font-weight="700">02</text>
    </g>
<g transform="translate(628 96)">
      <rect x="0" y="0" width="258" height="212" rx="26" fill="#FFFFFF" stroke="#E5DDD3" stroke-width="2"/>
      <svg x="75" y="6" width="108" height="108" viewBox="0 0 128 128">
  <title>Aishas Comfort — Jurnal stoli</title>
  <g fill="none" stroke="#17233C" stroke-width="4" stroke-linecap="round" stroke-linejoin="round">
    <rect x="22" y="48" width="84" height="20" rx="10"/><path d="M34 68v27M94 68v27M48 68l-8 27M80 68l8 27"/>
  </g>
  <path d="M45 109c6 7 12 10 19 10s13-3 19-10" fill="none" stroke="#F45B5B" stroke-width="5" stroke-linecap="round"/>
  <circle cx="105" cy="23" r="5" fill="#FFC27A"/>
</svg>
      <text x="129" y="141" text-anchor="middle" fill="#17233C" font-family="Manrope, Arial, sans-serif" font-size="18" font-weight="700">Jurnal stoli</text>
      <text x="129" y="170" text-anchor="middle" fill="#657083" font-family="Manrope, Arial, sans-serif" font-size="13" font-weight="500">Uy mebeli</text>
      <text x="129" y="196" text-anchor="middle" fill="#F45B5B" font-family="Manrope, Arial, sans-serif" font-size="12" font-weight="700">03</text>
    </g>
<g transform="translate(914 96)">
      <rect x="0" y="0" width="258" height="212" rx="26" fill="#FFFFFF" stroke="#E5DDD3" stroke-width="2"/>
      <svg x="75" y="6" width="108" height="108" viewBox="0 0 128 128">
  <title>Aishas Comfort — TV tumba</title>
  <g fill="none" stroke="#17233C" stroke-width="4" stroke-linecap="round" stroke-linejoin="round">
    <rect x="30" y="24" width="68" height="44" rx="5"/><path d="M54 68v9M74 68v9M43 77h42"/><rect x="20" y="80" width="88" height="17" rx="4"/><path d="M49 80v17M79 80v17"/>
  </g>
  <path d="M45 109c6 7 12 10 19 10s13-3 19-10" fill="none" stroke="#F45B5B" stroke-width="5" stroke-linecap="round"/>
  <circle cx="105" cy="23" r="5" fill="#FFC27A"/>
</svg>
      <text x="129" y="141" text-anchor="middle" fill="#17233C" font-family="Manrope, Arial, sans-serif" font-size="18" font-weight="700">TV tumba</text>
      <text x="129" y="170" text-anchor="middle" fill="#657083" font-family="Manrope, Arial, sans-serif" font-size="13" font-weight="500">Uy mebeli</text>
      <text x="129" y="196" text-anchor="middle" fill="#F45B5B" font-family="Manrope, Arial, sans-serif" font-size="12" font-weight="700">04</text>
    </g>
<g transform="translate(1200 96)">
      <rect x="0" y="0" width="258" height="212" rx="26" fill="#FFFFFF" stroke="#E5DDD3" stroke-width="2"/>
      <svg x="75" y="6" width="108" height="108" viewBox="0 0 128 128">
  <title>Aishas Comfort — Karavot</title>
  <g fill="none" stroke="#17233C" stroke-width="4" stroke-linecap="round" stroke-linejoin="round">
    <path d="M20 44v54M108 59v39M20 62h88v27H20zM29 62V48h34c9 0 16 6 16 14M29 89v9M99 89v9"/>
  </g>
  <path d="M45 109c6 7 12 10 19 10s13-3 19-10" fill="none" stroke="#F45B5B" stroke-width="5" stroke-linecap="round"/>
  <circle cx="105" cy="23" r="5" fill="#FFC27A"/>
</svg>
      <text x="129" y="141" text-anchor="middle" fill="#17233C" font-family="Manrope, Arial, sans-serif" font-size="18" font-weight="700">Karavot</text>
      <text x="129" y="170" text-anchor="middle" fill="#657083" font-family="Manrope, Arial, sans-serif" font-size="13" font-weight="500">Yotoqxona</text>
      <text x="129" y="196" text-anchor="middle" fill="#F45B5B" font-family="Manrope, Arial, sans-serif" font-size="12" font-weight="700">05</text>
    </g>
<g transform="translate(1486 96)">
      <rect x="0" y="0" width="258" height="212" rx="26" fill="#FFFFFF" stroke="#E5DDD3" stroke-width="2"/>
      <svg x="75" y="6" width="108" height="108" viewBox="0 0 128 128">
  <title>Aishas Comfort — Shkaf</title>
  <g fill="none" stroke="#17233C" stroke-width="4" stroke-linecap="round" stroke-linejoin="round">
    <rect x="31" y="23" width="66" height="75" rx="5"/><path d="M64 23v75M55 59h-5M73 59h5M39 98v5M89 98v5"/>
  </g>
  <path d="M45 109c6 7 12 10 19 10s13-3 19-10" fill="none" stroke="#F45B5B" stroke-width="5" stroke-linecap="round"/>
  <circle cx="105" cy="23" r="5" fill="#FFC27A"/>
</svg>
      <text x="129" y="141" text-anchor="middle" fill="#17233C" font-family="Manrope, Arial, sans-serif" font-size="18" font-weight="700">Shkaf</text>
      <text x="129" y="170" text-anchor="middle" fill="#657083" font-family="Manrope, Arial, sans-serif" font-size="13" font-weight="500">Yotoqxona</text>
      <text x="129" y="196" text-anchor="middle" fill="#F45B5B" font-family="Manrope, Arial, sans-serif" font-size="12" font-weight="700">06</text>
    </g>
<g transform="translate(1772 96)">
      <rect x="0" y="0" width="258" height="212" rx="26" fill="#FFFFFF" stroke="#E5DDD3" stroke-width="2"/>
      <svg x="75" y="6" width="108" height="108" viewBox="0 0 128 128">
  <title>Aishas Comfort — Komod</title>
  <g fill="none" stroke="#17233C" stroke-width="4" stroke-linecap="round" stroke-linejoin="round">
    <rect x="27" y="36" width="74" height="62" rx="5"/><path d="M27 56h74M27 77h74M58 46h12M58 67h12M58 88h12M36 98v5M92 98v5"/>
  </g>
  <path d="M45 109c6 7 12 10 19 10s13-3 19-10" fill="none" stroke="#F45B5B" stroke-width="5" stroke-linecap="round"/>
  <circle cx="105" cy="23" r="5" fill="#FFC27A"/>
</svg>
      <text x="129" y="141" text-anchor="middle" fill="#17233C" font-family="Manrope, Arial, sans-serif" font-size="18" font-weight="700">Komod</text>
      <text x="129" y="170" text-anchor="middle" fill="#657083" font-family="Manrope, Arial, sans-serif" font-size="13" font-weight="500">Yotoqxona</text>
      <text x="129" y="196" text-anchor="middle" fill="#F45B5B" font-family="Manrope, Arial, sans-serif" font-size="12" font-weight="700">07</text>
    </g>
<g transform="translate(2058 96)">
      <rect x="0" y="0" width="258" height="212" rx="26" fill="#FFFFFF" stroke="#E5DDD3" stroke-width="2"/>
      <svg x="75" y="6" width="108" height="108" viewBox="0 0 128 128">
  <title>Aishas Comfort — Tumba</title>
  <g fill="none" stroke="#17233C" stroke-width="4" stroke-linecap="round" stroke-linejoin="round">
    <rect x="38" y="44" width="52" height="54" rx="5"/><path d="M38 62h52M59 53h10M59 79h10M46 98v5M82 98v5"/><path d="M51 44v-8h26v8"/>
  </g>
  <path d="M45 109c6 7 12 10 19 10s13-3 19-10" fill="none" stroke="#F45B5B" stroke-width="5" stroke-linecap="round"/>
  <circle cx="105" cy="23" r="5" fill="#FFC27A"/>
</svg>
      <text x="129" y="141" text-anchor="middle" fill="#17233C" font-family="Manrope, Arial, sans-serif" font-size="18" font-weight="700">Tumba</text>
      <text x="129" y="170" text-anchor="middle" fill="#657083" font-family="Manrope, Arial, sans-serif" font-size="13" font-weight="500">Yotoqxona</text>
      <text x="129" y="196" text-anchor="middle" fill="#F45B5B" font-family="Manrope, Arial, sans-serif" font-size="12" font-weight="700">08</text>
    </g>
<g transform="translate(56 328)">
      <rect x="0" y="0" width="258" height="212" rx="26" fill="#FFFFFF" stroke="#E5DDD3" stroke-width="2"/>
      <svg x="75" y="6" width="108" height="108" viewBox="0 0 128 128">
  <title>Aishas Comfort — Ovqat stoli</title>
  <g fill="none" stroke="#17233C" stroke-width="4" stroke-linecap="round" stroke-linejoin="round">
    <rect x="20" y="48" width="88" height="17" rx="6"/><path d="M31 65v34M97 65v34M49 65l-5 34M79 65l5 34"/>
  </g>
  <path d="M45 109c6 7 12 10 19 10s13-3 19-10" fill="none" stroke="#F45B5B" stroke-width="5" stroke-linecap="round"/>
  <circle cx="105" cy="23" r="5" fill="#FFC27A"/>
</svg>
      <text x="129" y="141" text-anchor="middle" fill="#17233C" font-family="Manrope, Arial, sans-serif" font-size="18" font-weight="700">Ovqat stoli</text>
      <text x="129" y="170" text-anchor="middle" fill="#657083" font-family="Manrope, Arial, sans-serif" font-size="13" font-weight="500">Oshxona</text>
      <text x="129" y="196" text-anchor="middle" fill="#F45B5B" font-family="Manrope, Arial, sans-serif" font-size="12" font-weight="700">09</text>
    </g>
<g transform="translate(342 328)">
      <rect x="0" y="0" width="258" height="212" rx="26" fill="#FFFFFF" stroke="#E5DDD3" stroke-width="2"/>
      <svg x="75" y="6" width="108" height="108" viewBox="0 0 128 128">
  <title>Aishas Comfort — Stul</title>
  <g fill="none" stroke="#17233C" stroke-width="4" stroke-linecap="round" stroke-linejoin="round">
    <path d="M42 26v42h44V26M42 44h44M38 68h52M45 68l-5 31M83 68l5 31"/>
  </g>
  <path d="M45 109c6 7 12 10 19 10s13-3 19-10" fill="none" stroke="#F45B5B" stroke-width="5" stroke-linecap="round"/>
  <circle cx="105" cy="23" r="5" fill="#FFC27A"/>
</svg>
      <text x="129" y="141" text-anchor="middle" fill="#17233C" font-family="Manrope, Arial, sans-serif" font-size="18" font-weight="700">Stul</text>
      <text x="129" y="170" text-anchor="middle" fill="#657083" font-family="Manrope, Arial, sans-serif" font-size="13" font-weight="500">Oshxona</text>
      <text x="129" y="196" text-anchor="middle" fill="#F45B5B" font-family="Manrope, Arial, sans-serif" font-size="12" font-weight="700">10</text>
    </g>
<g transform="translate(628 328)">
      <rect x="0" y="0" width="258" height="212" rx="26" fill="#FFFFFF" stroke="#E5DDD3" stroke-width="2"/>
      <svg x="75" y="6" width="108" height="108" viewBox="0 0 128 128">
  <title>Aishas Comfort — Ofis stoli</title>
  <g fill="none" stroke="#17233C" stroke-width="4" stroke-linecap="round" stroke-linejoin="round">
    <rect x="18" y="46" width="92" height="18" rx="4"/><path d="M29 64v35M99 64v35"/><rect x="69" y="64" width="30" height="28" rx="3"/><path d="M69 78h30M80 71h8M80 85h8"/>
  </g>
  <path d="M45 109c6 7 12 10 19 10s13-3 19-10" fill="none" stroke="#F45B5B" stroke-width="5" stroke-linecap="round"/>
  <circle cx="105" cy="23" r="5" fill="#FFC27A"/>
</svg>
      <text x="129" y="141" text-anchor="middle" fill="#17233C" font-family="Manrope, Arial, sans-serif" font-size="18" font-weight="700">Ofis stoli</text>
      <text x="129" y="170" text-anchor="middle" fill="#657083" font-family="Manrope, Arial, sans-serif" font-size="13" font-weight="500">Ofis</text>
      <text x="129" y="196" text-anchor="middle" fill="#F45B5B" font-family="Manrope, Arial, sans-serif" font-size="12" font-weight="700">11</text>
    </g>
<g transform="translate(914 328)">
      <rect x="0" y="0" width="258" height="212" rx="26" fill="#FFFFFF" stroke="#E5DDD3" stroke-width="2"/>
      <svg x="75" y="6" width="108" height="108" viewBox="0 0 128 128">
  <title>Aishas Comfort — Ofis kreslosi</title>
  <g fill="none" stroke="#17233C" stroke-width="4" stroke-linecap="round" stroke-linejoin="round">
    <rect x="43" y="25" width="42" height="44" rx="17"/><path d="M39 69h50v17H39zM64 86v11M47 101h34M51 97l-9 8M77 97l9 8"/>
  </g>
  <path d="M45 109c6 7 12 10 19 10s13-3 19-10" fill="none" stroke="#F45B5B" stroke-width="5" stroke-linecap="round"/>
  <circle cx="105" cy="23" r="5" fill="#FFC27A"/>
</svg>
      <text x="129" y="141" text-anchor="middle" fill="#17233C" font-family="Manrope, Arial, sans-serif" font-size="18" font-weight="700">Ofis kreslosi</text>
      <text x="129" y="170" text-anchor="middle" fill="#657083" font-family="Manrope, Arial, sans-serif" font-size="13" font-weight="500">Ofis</text>
      <text x="129" y="196" text-anchor="middle" fill="#F45B5B" font-family="Manrope, Arial, sans-serif" font-size="12" font-weight="700">12</text>
    </g>
<g transform="translate(1200 328)">
      <rect x="0" y="0" width="258" height="212" rx="26" fill="#FFFFFF" stroke="#E5DDD3" stroke-width="2"/>
      <svg x="75" y="6" width="108" height="108" viewBox="0 0 128 128">
  <title>Aishas Comfort — Ofis shkafi</title>
  <g fill="none" stroke="#17233C" stroke-width="4" stroke-linecap="round" stroke-linejoin="round">
    <rect x="35" y="23" width="58" height="76" rx="5"/><path d="M35 48h58M35 73h58M59 35h10M59 60h10M59 85h10"/>
  </g>
  <path d="M45 109c6 7 12 10 19 10s13-3 19-10" fill="none" stroke="#F45B5B" stroke-width="5" stroke-linecap="round"/>
  <circle cx="105" cy="23" r="5" fill="#FFC27A"/>
</svg>
      <text x="129" y="141" text-anchor="middle" fill="#17233C" font-family="Manrope, Arial, sans-serif" font-size="18" font-weight="700">Ofis shkafi</text>
      <text x="129" y="170" text-anchor="middle" fill="#657083" font-family="Manrope, Arial, sans-serif" font-size="13" font-weight="500">Ofis</text>
      <text x="129" y="196" text-anchor="middle" fill="#F45B5B" font-family="Manrope, Arial, sans-serif" font-size="12" font-weight="700">13</text>
    </g>
<g transform="translate(1486 328)">
      <rect x="0" y="0" width="258" height="212" rx="26" fill="#FFFFFF" stroke="#E5DDD3" stroke-width="2"/>
      <svg x="75" y="6" width="108" height="108" viewBox="0 0 128 128">
  <title>Aishas Comfort — Javon</title>
  <g fill="none" stroke="#17233C" stroke-width="4" stroke-linecap="round" stroke-linejoin="round">
    <rect x="29" y="22" width="70" height="78" rx="4"/><path d="M29 49h70M29 76h70M43 29v14M52 29v14M64 56v14M78 56v14M42 83v11M55 83v11M72 83v11"/>
  </g>
  <path d="M45 109c6 7 12 10 19 10s13-3 19-10" fill="none" stroke="#F45B5B" stroke-width="5" stroke-linecap="round"/>
  <circle cx="105" cy="23" r="5" fill="#FFC27A"/>
</svg>
      <text x="129" y="141" text-anchor="middle" fill="#17233C" font-family="Manrope, Arial, sans-serif" font-size="18" font-weight="700">Javon</text>
      <text x="129" y="170" text-anchor="middle" fill="#657083" font-family="Manrope, Arial, sans-serif" font-size="13" font-weight="500">Ofis</text>
      <text x="129" y="196" text-anchor="middle" fill="#F45B5B" font-family="Manrope, Arial, sans-serif" font-size="12" font-weight="700">14</text>
    </g>
<g transform="translate(1772 328)">
      <rect x="0" y="0" width="258" height="212" rx="26" fill="#FFFFFF" stroke="#E5DDD3" stroke-width="2"/>
      <svg x="75" y="6" width="108" height="108" viewBox="0 0 128 128">
  <title>Aishas Comfort — Maktab partasi</title>
  <g fill="none" stroke="#17233C" stroke-width="4" stroke-linecap="round" stroke-linejoin="round">
    <path d="M23 48h82l-7 20H30l-7-20Z"/><path d="M37 68l-7 31M91 68l7 31M48 68v14h32V68M55 37h18"/>
  </g>
  <path d="M45 109c6 7 12 10 19 10s13-3 19-10" fill="none" stroke="#F45B5B" stroke-width="5" stroke-linecap="round"/>
  <circle cx="105" cy="23" r="5" fill="#FFC27A"/>
</svg>
      <text x="129" y="141" text-anchor="middle" fill="#17233C" font-family="Manrope, Arial, sans-serif" font-size="18" font-weight="700">Maktab partasi</text>
      <text x="129" y="170" text-anchor="middle" fill="#657083" font-family="Manrope, Arial, sans-serif" font-size="13" font-weight="500">Ta’lim</text>
      <text x="129" y="196" text-anchor="middle" fill="#F45B5B" font-family="Manrope, Arial, sans-serif" font-size="12" font-weight="700">15</text>
    </g>
<g transform="translate(2058 328)">
      <rect x="0" y="0" width="258" height="212" rx="26" fill="#FFFFFF" stroke="#E5DDD3" stroke-width="2"/>
      <svg x="75" y="6" width="108" height="108" viewBox="0 0 128 128">
  <title>Aishas Comfort — O‘quvchi stuli</title>
  <g fill="none" stroke="#17233C" stroke-width="4" stroke-linecap="round" stroke-linejoin="round">
    <rect x="42" y="28" width="44" height="34" rx="8"/><path d="M38 66h52v16H38zM46 82l-6 18M82 82l6 18M47 66V62M81 66V62"/>
  </g>
  <path d="M45 109c6 7 12 10 19 10s13-3 19-10" fill="none" stroke="#F45B5B" stroke-width="5" stroke-linecap="round"/>
  <circle cx="105" cy="23" r="5" fill="#FFC27A"/>
</svg>
      <text x="129" y="141" text-anchor="middle" fill="#17233C" font-family="Manrope, Arial, sans-serif" font-size="18" font-weight="700">O‘quvchi stuli</text>
      <text x="129" y="170" text-anchor="middle" fill="#657083" font-family="Manrope, Arial, sans-serif" font-size="13" font-weight="500">Ta’lim</text>
      <text x="129" y="196" text-anchor="middle" fill="#F45B5B" font-family="Manrope, Arial, sans-serif" font-size="12" font-weight="700">16</text>
    </g>
<g transform="translate(56 560)">
      <rect x="0" y="0" width="258" height="212" rx="26" fill="#FFFFFF" stroke="#E5DDD3" stroke-width="2"/>
      <svg x="75" y="6" width="108" height="108" viewBox="0 0 128 128">
  <title>Aishas Comfort — Bolalar arg‘imchog‘i</title>
  <g fill="none" stroke="#17233C" stroke-width="4" stroke-linecap="round" stroke-linejoin="round">
    <path d="M22 98 52 27h24l30 71M42 98h44M53 42l11 18 11-18M52 60v25M76 60v25M49 85h30"/>
  </g>
  <path d="M45 109c6 7 12 10 19 10s13-3 19-10" fill="none" stroke="#F45B5B" stroke-width="5" stroke-linecap="round"/>
  <circle cx="105" cy="23" r="5" fill="#FFC27A"/>
</svg>
      <text x="129" y="141" text-anchor="middle" fill="#17233C" font-family="Manrope, Arial, sans-serif" font-size="18" font-weight="700">Bolalar arg‘imchog‘i</text>
      <text x="129" y="170" text-anchor="middle" fill="#657083" font-family="Manrope, Arial, sans-serif" font-size="13" font-weight="500">Bolalar</text>
      <text x="129" y="196" text-anchor="middle" fill="#F45B5B" font-family="Manrope, Arial, sans-serif" font-size="12" font-weight="700">17</text>
    </g>
<g transform="translate(342 560)">
      <rect x="0" y="0" width="258" height="212" rx="26" fill="#FFFFFF" stroke="#E5DDD3" stroke-width="2"/>
      <svg x="75" y="6" width="108" height="108" viewBox="0 0 128 128">
  <title>Aishas Comfort — Bolalar stol-stuli</title>
  <g fill="none" stroke="#17233C" stroke-width="4" stroke-linecap="round" stroke-linejoin="round">
    <rect x="38" y="48" width="52" height="16" rx="5"/><path d="M47 64v34M81 64v34M22 68h20v15H22zM27 83v15M37 83v15M86 68h20v15H86zM91 83v15M101 83v15"/>
  </g>
  <path d="M45 109c6 7 12 10 19 10s13-3 19-10" fill="none" stroke="#F45B5B" stroke-width="5" stroke-linecap="round"/>
  <circle cx="105" cy="23" r="5" fill="#FFC27A"/>
</svg>
      <text x="129" y="141" text-anchor="middle" fill="#17233C" font-family="Manrope, Arial, sans-serif" font-size="18" font-weight="700">Bolalar stol-stuli</text>
      <text x="129" y="170" text-anchor="middle" fill="#657083" font-family="Manrope, Arial, sans-serif" font-size="13" font-weight="500">Bolalar</text>
      <text x="129" y="196" text-anchor="middle" fill="#F45B5B" font-family="Manrope, Arial, sans-serif" font-size="12" font-weight="700">18</text>
    </g>
<g transform="translate(628 560)">
      <rect x="0" y="0" width="258" height="212" rx="26" fill="#FFFFFF" stroke="#E5DDD3" stroke-width="2"/>
      <svg x="75" y="6" width="108" height="108" viewBox="0 0 128 128">
  <title>Aishas Comfort — Oshxona buyumlari</title>
  <g fill="none" stroke="#17233C" stroke-width="4" stroke-linecap="round" stroke-linejoin="round">
    <path d="M31 50h66v37c0 8-6 14-14 14H45c-8 0-14-6-14-14V50ZM25 50h78M43 38h42M55 30h18M97 61h10c8 0 10 16 0 20H97"/>
  </g>
  <path d="M45 109c6 7 12 10 19 10s13-3 19-10" fill="none" stroke="#F45B5B" stroke-width="5" stroke-linecap="round"/>
  <circle cx="105" cy="23" r="5" fill="#FFC27A"/>
</svg>
      <text x="129" y="141" text-anchor="middle" fill="#17233C" font-family="Manrope, Arial, sans-serif" font-size="18" font-weight="700">Oshxona buyumlari</text>
      <text x="129" y="170" text-anchor="middle" fill="#657083" font-family="Manrope, Arial, sans-serif" font-size="13" font-weight="500">Oshxona</text>
      <text x="129" y="196" text-anchor="middle" fill="#F45B5B" font-family="Manrope, Arial, sans-serif" font-size="12" font-weight="700">19</text>
    </g>
<g transform="translate(914 560)">
      <rect x="0" y="0" width="258" height="212" rx="26" fill="#FFFFFF" stroke="#E5DDD3" stroke-width="2"/>
      <svg x="75" y="6" width="108" height="108" viewBox="0 0 128 128">
  <title>Aishas Comfort — Idishlar</title>
  <g fill="none" stroke="#17233C" stroke-width="4" stroke-linecap="round" stroke-linejoin="round">
    <circle cx="53" cy="66" r="29"/><circle cx="53" cy="66" r="17"/><path d="M87 48h17v31H87c-7 0-12-6-12-15s5-16 12-16ZM104 55h5c9 0 9 17 0 17h-5"/>
  </g>
  <path d="M45 109c6 7 12 10 19 10s13-3 19-10" fill="none" stroke="#F45B5B" stroke-width="5" stroke-linecap="round"/>
  <circle cx="105" cy="23" r="5" fill="#FFC27A"/>
</svg>
      <text x="129" y="141" text-anchor="middle" fill="#17233C" font-family="Manrope, Arial, sans-serif" font-size="18" font-weight="700">Idishlar</text>
      <text x="129" y="170" text-anchor="middle" fill="#657083" font-family="Manrope, Arial, sans-serif" font-size="13" font-weight="500">Oshxona</text>
      <text x="129" y="196" text-anchor="middle" fill="#F45B5B" font-family="Manrope, Arial, sans-serif" font-size="12" font-weight="700">20</text>
    </g>
<g transform="translate(1200 560)">
      <rect x="0" y="0" width="258" height="212" rx="26" fill="#FFFFFF" stroke="#E5DDD3" stroke-width="2"/>
      <svg x="75" y="6" width="108" height="108" viewBox="0 0 128 128">
  <title>Aishas Comfort — Oshxona organayzeri</title>
  <g fill="none" stroke="#17233C" stroke-width="4" stroke-linecap="round" stroke-linejoin="round">
    <path d="M27 34h74v65H27zM27 59h74M27 82h74"/><rect x="38" y="42" width="17" height="17" rx="3"/><rect x="63" y="39" width="26" height="20" rx="3"/><path d="M40 70h14M64 70h25M40 92h23M72 92h17"/>
  </g>
  <path d="M45 109c6 7 12 10 19 10s13-3 19-10" fill="none" stroke="#F45B5B" stroke-width="5" stroke-linecap="round"/>
  <circle cx="105" cy="23" r="5" fill="#FFC27A"/>
</svg>
      <text x="129" y="141" text-anchor="middle" fill="#17233C" font-family="Manrope, Arial, sans-serif" font-size="18" font-weight="700">Oshxona organayzeri</text>
      <text x="129" y="170" text-anchor="middle" fill="#657083" font-family="Manrope, Arial, sans-serif" font-size="13" font-weight="500">Oshxona</text>
      <text x="129" y="196" text-anchor="middle" fill="#F45B5B" font-family="Manrope, Arial, sans-serif" font-size="12" font-weight="700">21</text>
    </g>
<g transform="translate(1486 560)">
      <rect x="0" y="0" width="258" height="212" rx="26" fill="#FFFFFF" stroke="#E5DDD3" stroke-width="2"/>
      <svg x="75" y="6" width="108" height="108" viewBox="0 0 128 128">
  <title>Aishas Comfort — Saqlash qutisi</title>
  <g fill="none" stroke="#17233C" stroke-width="4" stroke-linecap="round" stroke-linejoin="round">
    <path d="M26 47h76v52H26zM20 37h88v15H20zM55 61h18M34 47v52M94 47v52"/>
  </g>
  <path d="M45 109c6 7 12 10 19 10s13-3 19-10" fill="none" stroke="#F45B5B" stroke-width="5" stroke-linecap="round"/>
  <circle cx="105" cy="23" r="5" fill="#FFC27A"/>
</svg>
      <text x="129" y="141" text-anchor="middle" fill="#17233C" font-family="Manrope, Arial, sans-serif" font-size="18" font-weight="700">Saqlash qutisi</text>
      <text x="129" y="170" text-anchor="middle" fill="#657083" font-family="Manrope, Arial, sans-serif" font-size="13" font-weight="500">Uy-ro‘zg‘or</text>
      <text x="129" y="196" text-anchor="middle" fill="#F45B5B" font-family="Manrope, Arial, sans-serif" font-size="12" font-weight="700">22</text>
    </g>
<g transform="translate(1772 560)">
      <rect x="0" y="0" width="258" height="212" rx="26" fill="#FFFFFF" stroke="#E5DDD3" stroke-width="2"/>
      <svg x="75" y="6" width="108" height="108" viewBox="0 0 128 128">
  <title>Aishas Comfort — Kir savati</title>
  <g fill="none" stroke="#17233C" stroke-width="4" stroke-linecap="round" stroke-linejoin="round">
    <path d="M31 46h66l-7 54H38l-7-54Z"/><path d="M42 46V33M86 46V33M49 59v27M64 59v27M79 59v27M26 46h76"/>
  </g>
  <path d="M45 109c6 7 12 10 19 10s13-3 19-10" fill="none" stroke="#F45B5B" stroke-width="5" stroke-linecap="round"/>
  <circle cx="105" cy="23" r="5" fill="#FFC27A"/>
</svg>
      <text x="129" y="141" text-anchor="middle" fill="#17233C" font-family="Manrope, Arial, sans-serif" font-size="18" font-weight="700">Kir savati</text>
      <text x="129" y="170" text-anchor="middle" fill="#657083" font-family="Manrope, Arial, sans-serif" font-size="13" font-weight="500">Uy-ro‘zg‘or</text>
      <text x="129" y="196" text-anchor="middle" fill="#F45B5B" font-family="Manrope, Arial, sans-serif" font-size="12" font-weight="700">23</text>
    </g>
<g transform="translate(2058 560)">
      <rect x="0" y="0" width="258" height="212" rx="26" fill="#FFFFFF" stroke="#E5DDD3" stroke-width="2"/>
      <svg x="75" y="6" width="108" height="108" viewBox="0 0 128 128">
  <title>Aishas Comfort — Oyoq kiyim javoni</title>
  <g fill="none" stroke="#17233C" stroke-width="4" stroke-linecap="round" stroke-linejoin="round">
    <path d="M25 38h78v61H25zM25 68h78M37 38v61M91 38v61"/><path d="M47 55c5 5 12 6 19 1l7 7H45c-5 0-5-6 2-8ZM52 85c5 5 12 6 19 1l7 7H50c-5 0-5-6 2-8Z"/>
  </g>
  <path d="M45 109c6 7 12 10 19 10s13-3 19-10" fill="none" stroke="#F45B5B" stroke-width="5" stroke-linecap="round"/>
  <circle cx="105" cy="23" r="5" fill="#FFC27A"/>
</svg>
      <text x="129" y="141" text-anchor="middle" fill="#17233C" font-family="Manrope, Arial, sans-serif" font-size="18" font-weight="700">Oyoq kiyim javoni</text>
      <text x="129" y="170" text-anchor="middle" fill="#657083" font-family="Manrope, Arial, sans-serif" font-size="13" font-weight="500">Uy-ro‘zg‘or</text>
      <text x="129" y="196" text-anchor="middle" fill="#F45B5B" font-family="Manrope, Arial, sans-serif" font-size="12" font-weight="700">24</text>
    </g>
<g transform="translate(56 792)">
      <rect x="0" y="0" width="258" height="212" rx="26" fill="#FFFFFF" stroke="#E5DDD3" stroke-width="2"/>
      <svg x="75" y="6" width="108" height="108" viewBox="0 0 128 128">
  <title>Aishas Comfort — Yoritish</title>
  <g fill="none" stroke="#17233C" stroke-width="4" stroke-linecap="round" stroke-linejoin="round">
    <path d="M64 30v67M47 101h34M44 54h40L75 31H53L44 54ZM56 68h16"/>
  </g>
  <path d="M45 109c6 7 12 10 19 10s13-3 19-10" fill="none" stroke="#F45B5B" stroke-width="5" stroke-linecap="round"/>
  <circle cx="105" cy="23" r="5" fill="#FFC27A"/>
</svg>
      <text x="129" y="141" text-anchor="middle" fill="#17233C" font-family="Manrope, Arial, sans-serif" font-size="18" font-weight="700">Yoritish</text>
      <text x="129" y="170" text-anchor="middle" fill="#657083" font-family="Manrope, Arial, sans-serif" font-size="13" font-weight="500">Uy-ro‘zg‘or</text>
      <text x="129" y="196" text-anchor="middle" fill="#F45B5B" font-family="Manrope, Arial, sans-serif" font-size="12" font-weight="700">25</text>
    </g>
<g transform="translate(342 792)">
      <rect x="0" y="0" width="258" height="212" rx="26" fill="#FFFFFF" stroke="#E5DDD3" stroke-width="2"/>
      <svg x="75" y="6" width="108" height="108" viewBox="0 0 128 128">
  <title>Aishas Comfort — Uy dekori</title>
  <g fill="none" stroke="#17233C" stroke-width="4" stroke-linecap="round" stroke-linejoin="round">
    <path d="M48 48h32l7 42c1 7-4 12-11 12H52c-7 0-12-5-11-12l7-42Z"/><path d="M64 48V30M64 38c-9-11-18-8-22-2 9 6 16 6 22 2ZM64 42c9-11 18-8 22-2-9 6-16 6-22 2Z"/>
  </g>
  <path d="M45 109c6 7 12 10 19 10s13-3 19-10" fill="none" stroke="#F45B5B" stroke-width="5" stroke-linecap="round"/>
  <circle cx="105" cy="23" r="5" fill="#FFC27A"/>
</svg>
      <text x="129" y="141" text-anchor="middle" fill="#17233C" font-family="Manrope, Arial, sans-serif" font-size="18" font-weight="700">Uy dekori</text>
      <text x="129" y="170" text-anchor="middle" fill="#657083" font-family="Manrope, Arial, sans-serif" font-size="13" font-weight="500">Uy-ro‘zg‘or</text>
      <text x="129" y="196" text-anchor="middle" fill="#F45B5B" font-family="Manrope, Arial, sans-serif" font-size="12" font-weight="700">26</text>
    </g>
<g transform="translate(628 792)">
      <rect x="0" y="0" width="258" height="212" rx="26" fill="#FFFFFF" stroke="#E5DDD3" stroke-width="2"/>
      <svg x="75" y="6" width="108" height="108" viewBox="0 0 128 128">
  <title>Aishas Comfort — Tozalash buyumlari</title>
  <g fill="none" stroke="#17233C" stroke-width="4" stroke-linecap="round" stroke-linejoin="round">
    <path d="M77 27 51 91M72 25l11 4M44 91h28l-6 11H38l6-11Z"/><path d="M92 45v43M82 88h20l-4 14H86l-4-14ZM91 45h3"/>
  </g>
  <path d="M45 109c6 7 12 10 19 10s13-3 19-10" fill="none" stroke="#F45B5B" stroke-width="5" stroke-linecap="round"/>
  <circle cx="105" cy="23" r="5" fill="#FFC27A"/>
</svg>
      <text x="129" y="141" text-anchor="middle" fill="#17233C" font-family="Manrope, Arial, sans-serif" font-size="18" font-weight="700">Tozalash buyumlari</text>
      <text x="129" y="170" text-anchor="middle" fill="#657083" font-family="Manrope, Arial, sans-serif" font-size="13" font-weight="500">Uy-ro‘zg‘or</text>
      <text x="129" y="196" text-anchor="middle" fill="#F45B5B" font-family="Manrope, Arial, sans-serif" font-size="12" font-weight="700">27</text>
    </g>
<g transform="translate(914 792)">
      <rect x="0" y="0" width="258" height="212" rx="26" fill="#FFFFFF" stroke="#E5DDD3" stroke-width="2"/>
      <svg x="75" y="6" width="108" height="108" viewBox="0 0 128 128">
  <title>Aishas Comfort — Uy tekstili</title>
  <g fill="none" stroke="#17233C" stroke-width="4" stroke-linecap="round" stroke-linejoin="round">
    <rect x="29" y="35" width="70" height="30" rx="10"/><path d="M36 65h56v16H36zM43 81h42v17H43zM45 48h38M51 73h26M55 89h18"/>
  </g>
  <path d="M45 109c6 7 12 10 19 10s13-3 19-10" fill="none" stroke="#F45B5B" stroke-width="5" stroke-linecap="round"/>
  <circle cx="105" cy="23" r="5" fill="#FFC27A"/>
</svg>
      <text x="129" y="141" text-anchor="middle" fill="#17233C" font-family="Manrope, Arial, sans-serif" font-size="18" font-weight="700">Uy tekstili</text>
      <text x="129" y="170" text-anchor="middle" fill="#657083" font-family="Manrope, Arial, sans-serif" font-size="13" font-weight="500">Uy-ro‘zg‘or</text>
      <text x="129" y="196" text-anchor="middle" fill="#F45B5B" font-family="Manrope, Arial, sans-serif" font-size="12" font-weight="700">28</text>
    </g>
<g transform="translate(1200 792)">
      <rect x="0" y="0" width="258" height="212" rx="26" fill="#FFFFFF" stroke="#E5DDD3" stroke-width="2"/>
      <svg x="75" y="6" width="108" height="108" viewBox="0 0 128 128">
  <title>Aishas Comfort — Yetkazib berish</title>
  <g fill="none" stroke="#17233C" stroke-width="4" stroke-linecap="round" stroke-linejoin="round">
    <path d="M19 43h57v43H19zM76 58h18l15 17v11H76V58ZM83 65h10l7 9H83v-9Z"/><circle cx="39" cy="91" r="9"/><circle cx="91" cy="91" r="9"/><path d="M48 91h34"/>
  </g>
  <path d="M45 109c6 7 12 10 19 10s13-3 19-10" fill="none" stroke="#F45B5B" stroke-width="5" stroke-linecap="round"/>
  <circle cx="105" cy="23" r="5" fill="#FFC27A"/>
</svg>
      <text x="129" y="141" text-anchor="middle" fill="#17233C" font-family="Manrope, Arial, sans-serif" font-size="18" font-weight="700">Yetkazib berish</text>
      <text x="129" y="170" text-anchor="middle" fill="#657083" font-family="Manrope, Arial, sans-serif" font-size="13" font-weight="500">Xizmat</text>
      <text x="129" y="196" text-anchor="middle" fill="#F45B5B" font-family="Manrope, Arial, sans-serif" font-size="12" font-weight="700">29</text>
    </g>
<g transform="translate(1486 792)">
      <rect x="0" y="0" width="258" height="212" rx="26" fill="#FFFFFF" stroke="#E5DDD3" stroke-width="2"/>
      <svg x="75" y="6" width="108" height="108" viewBox="0 0 128 128">
  <title>Aishas Comfort — Yig‘ish xizmati</title>
  <g fill="none" stroke="#17233C" stroke-width="4" stroke-linecap="round" stroke-linejoin="round">
    <path d="M36 31c9 0 15 7 15 15 0 3-1 6-2 8l31 31-13 13-31-31c-2 1-5 2-8 2-9 0-15-7-15-15 0-4 1-7 3-10l10 10 9-9-10-10c3-3 7-4 11-4Z"/><path d="m76 36 14-8 11 11-8 14-10 2-9-9 2-10Z"/>
  </g>
  <path d="M45 109c6 7 12 10 19 10s13-3 19-10" fill="none" stroke="#F45B5B" stroke-width="5" stroke-linecap="round"/>
  <circle cx="105" cy="23" r="5" fill="#FFC27A"/>
</svg>
      <text x="129" y="141" text-anchor="middle" fill="#17233C" font-family="Manrope, Arial, sans-serif" font-size="18" font-weight="700">Yig‘ish xizmati</text>
      <text x="129" y="170" text-anchor="middle" fill="#657083" font-family="Manrope, Arial, sans-serif" font-size="13" font-weight="500">Xizmat</text>
      <text x="129" y="196" text-anchor="middle" fill="#F45B5B" font-family="Manrope, Arial, sans-serif" font-size="12" font-weight="700">30</text>
    </g>
<g transform="translate(1772 792)">
      <rect x="0" y="0" width="258" height="212" rx="26" fill="#FFFFFF" stroke="#E5DDD3" stroke-width="2"/>
      <svg x="75" y="6" width="108" height="108" viewBox="0 0 128 128">
  <title>Aishas Comfort — Kafolat</title>
  <g fill="none" stroke="#17233C" stroke-width="4" stroke-linecap="round" stroke-linejoin="round">
    <path d="M64 24 99 38v25c0 21-14 35-35 42-21-7-35-21-35-42V38l35-14Z"/><path d="m46 64 12 12 25-27"/>
  </g>
  <path d="M45 109c6 7 12 10 19 10s13-3 19-10" fill="none" stroke="#F45B5B" stroke-width="5" stroke-linecap="round"/>
  <circle cx="105" cy="23" r="5" fill="#FFC27A"/>
</svg>
      <text x="129" y="141" text-anchor="middle" fill="#17233C" font-family="Manrope, Arial, sans-serif" font-size="18" font-weight="700">Kafolat</text>
      <text x="129" y="170" text-anchor="middle" fill="#657083" font-family="Manrope, Arial, sans-serif" font-size="13" font-weight="500">Xizmat</text>
      <text x="129" y="196" text-anchor="middle" fill="#F45B5B" font-family="Manrope, Arial, sans-serif" font-size="12" font-weight="700">31</text>
    </g>
<g transform="translate(2058 792)">
      <rect x="0" y="0" width="258" height="212" rx="26" fill="#FFFFFF" stroke="#E5DDD3" stroke-width="2"/>
      <svg x="75" y="6" width="108" height="108" viewBox="0 0 128 128">
  <title>Aishas Comfort — Konsultatsiya</title>
  <g fill="none" stroke="#17233C" stroke-width="4" stroke-linecap="round" stroke-linejoin="round">
    <path d="M24 31h80v56H62L43 101V87H24V31Z"/><path d="M42 51h44M42 66h31"/><circle cx="91" cy="68" r="4" fill="#17233C" stroke="none"/>
  </g>
  <path d="M45 109c6 7 12 10 19 10s13-3 19-10" fill="none" stroke="#F45B5B" stroke-width="5" stroke-linecap="round"/>
  <circle cx="105" cy="23" r="5" fill="#FFC27A"/>
</svg>
      <text x="129" y="141" text-anchor="middle" fill="#17233C" font-family="Manrope, Arial, sans-serif" font-size="18" font-weight="700">Konsultatsiya</text>
      <text x="129" y="170" text-anchor="middle" fill="#657083" font-family="Manrope, Arial, sans-serif" font-size="13" font-weight="500">Xizmat</text>
      <text x="129" y="196" text-anchor="middle" fill="#F45B5B" font-family="Manrope, Arial, sans-serif" font-size="12" font-weight="700">32</text>
    </g>
</svg>