<?xml version="1.0" encoding="UTF-8"?>
<svg xmlns="http://www.w3.org/2000/svg" width="256" height="256" viewBox="0 0 128 128">
  <title>Aishas Comfort — Oyoq kiyim javoni</title>
  <g fill="none" stroke="#17233C" stroke-width="4" stroke-linecap="round" stroke-linejoin="round">
    <path d="M25 38h78v61H25zM25 68h78M37 38v61M91 38v61"/><path d="M47 55c5 5 12 6 19 1l7 7H45c-5 0-5-6 2-8ZM52 85c5 5 12 6 19 1l7 7H50c-5 0-5-6 2-8Z"/>
  </g>
  <path d="M45 109c6 7 12 10 19 10s13-3 19-10" fill="none" stroke="#F45B5B" stroke-width="5" stroke-linecap="round"/>
  <circle cx="105" cy="23" r="5" fill="#FFC27A"/>
</svg>