<?xml version="1.0" encoding="UTF-8"?>
<svg xmlns="http://www.w3.org/2000/svg" width="256" height="256" viewBox="0 0 128 128">
  <title>Aishas Comfort — Yig‘ish xizmati</title>
  <g fill="none" stroke="#17233C" stroke-width="4" stroke-linecap="round" stroke-linejoin="round">
    <path d="M36 31c9 0 15 7 15 15 0 3-1 6-2 8l31 31-13 13-31-31c-2 1-5 2-8 2-9 0-15-7-15-15 0-4 1-7 3-10l10 10 9-9-10-10c3-3 7-4 11-4Z"/><path d="m76 36 14-8 11 11-8 14-10 2-9-9 2-10Z"/>
  </g>
  <path d="M45 109c6 7 12 10 19 10s13-3 19-10" fill="none" stroke="#F45B5B" stroke-width="5" stroke-linecap="round"/>
  <circle cx="105" cy="23" r="5" fill="#FFC27A"/>
</svg>